<?xml version="1.0" encoding="UTF-8" standalone="no"?>
<svg
   xmlns:dc="http://purl.org/dc/elements/1.1/"
   xmlns:cc="http://creativecommons.org/ns#"
   xmlns:rdf="http://www.w3.org/1999/02/22-rdf-syntax-ns#"
   xmlns:svg="http://www.w3.org/2000/svg"
   xmlns="http://www.w3.org/2000/svg"
   xml:space="preserve"
   style="enable-background:new 0 0 1920 1080;"
   viewBox="0 0 1920 1080"
   y="0px"
   x="0px"
   id="Layer_1"
   version="1.1"><metadata
   id="metadata19"><rdf:RDF><cc:Work
       rdf:about=""><dc:format>image/svg+xml</dc:format><dc:type
         rdf:resource="http://purl.org/dc/dcmitype/StillImage" /></cc:Work></rdf:RDF></metadata><defs
   id="defs17" />
<style
   id="style2"
   type="text/css">
	.st0{fill:#000AB9;stroke:#000000;stroke-miterlimit:10;}
	.st1{fill:#00D040;stroke:#000000;stroke-miterlimit:10;}
	.st2{fill:#0000D0;stroke:#000000;stroke-miterlimit:10;}
</style>
<path
   id="path4"
   d="M1045.5,297.5c-9.52,5.89-23.39,13.69-41,21c-12.12,5.03-26.21,10.88-41,13c-27.82,4-48.62-6.54-64-12  c-48.27-17.13-117.49-10.64-160,24c-37.43,30.5-45.47,75.74-48,90c-2.2,12.38-10.72,68.61,22,116c28.26,40.94,55.66,29.45,84,72  c21.49,32.27,25.01,67.82,28,98c5.49,55.45-6.26,89.36,2,92c8.33,2.66,27.71-29.47,38-58c17.72-49.15,10.01-91.98,8-102  c-7.93-39.56-27.18-68.1-34-78c-18.99-27.58-29.6-29.56-38-52c-11.21-29.95-3.24-58.42,0-70c3.3-11.78,14.61-52.2,50-72  c17.23-9.64,41.49-11.76,90-16c6.74-0.59,17.26-0.67,30.69-4.76c19.77-6.01,32.97-16.23,39.31-21.24  C1028.84,323.81,1039.4,308.4,1045.5,297.5z"
   class="st0" />
<path
   id="path6"
   d="M1009.5,355.5c-36.07,13.76-64.72,27.82-84,38c6.9,2.56,17.22,5.71,30,7c18.34,1.85,31.31-1.2,42-3  c15.5-2.61,48.17-8.12,74,0c41.15,12.93,58.69,58.46,60,62c12.59,34.12,6.2,70.97-11,96c-14.46,21.04-25.09,17.76-45,38  c-45.71,46.48-40.48,116.66-46,116c-4.06-0.49-8.09-38.69-2-80c2.64-17.88,5.6-26.48,2-40c-4.03-15.16-16.34-34.62-36-40  c-30.28-8.29-57.52,22.44-66,32c-21.17,23.88-27.18,52.22-24,54c3.17,1.78,15.92-29.97,42-34c14.8-2.29,27.09,5.41,28,6  c22.87,14.78,7.89,53.88,14,128c1.81,21.91,6.05,73.39,22,76c8.84,1.45,20.12-12.3,24-18c4.95-7.28,12.45-22.92,18-32  c0.14-0.24,0.24-0.4,0.27-0.43c1.04-1.56,4.2-4.76,53.73-63.57c26.09-30.97,39.13-46.46,42-50c36.54-45.12,54.81-67.68,70-98  c14.23-28.4,26.17-52.25,26-86c-0.06-12.35-0.76-48.84-26-82c-35.54-46.7-92.86-51.48-110-52  C1079.89,328.66,1056.43,337.61,1009.5,355.5z"
   class="st1" />
<circle
   id="circle8"
   r="51"
   cy="503.5"
   cx="945.5"
   class="st1" />
<circle
   id="circle10"
   r="70"
   cy="335.5"
   cx="637.5"
   class="st2" />
<circle
   id="circle12"
   r="70"
   cy="335.5"
   cx="1282.5"
   class="st1" />
</svg>