<?xml version="1.0" encoding="iso-8859-1"?>
<!-- Generator: Adobe Illustrator 19.0.0, SVG Export Plug-In . SVG Version: 6.00 Build 0)  -->
<svg version="1.1" id="Capa_1" xmlns="http://www.w3.org/2000/svg" xmlns:xlink="http://www.w3.org/1999/xlink" x="0px" y="0px"
	 viewBox="0 0 510 510" style="enable-background:new 0 0 510 510;" xml:space="preserve">
<g>
	<path style="fill:#E6F9FE;" d="M416.28,22.954L416.28,22.954C355.907-17.579,281.24,6.741,255,17.407
		C228.76,6.741,154.093-17.579,93.72,22.954c-48.423,32.249-76.302,87.601-73.387,145.707c1.852,51.322,19.097,100.9,49.493,142.293
		c20.589,26.7,33.033,58.774,35.84,92.373c0,50.347,26.24,106.667,64,106.667c53.12,0,64-64,74.027-115.84
		c2.563-16.61,6.342-33.01,11.307-49.067c4.974,16.127,8.754,32.598,11.307,49.28c10.027,51.627,20.907,115.627,74.027,115.627
		c37.76,0,64-56.32,64-106.667c2.807-33.599,15.251-65.674,35.84-92.373c30.397-41.393,47.641-90.972,49.493-142.293
		C492.582,110.555,464.703,55.202,416.28,22.954z"/>
	<path style="fill:#CCF2FE;" d="M148.333,403.327c-2.807-33.599-15.251-65.674-35.84-92.373
		C82.096,269.561,64.852,219.982,63,168.661c-2.915-58.106,24.963-113.458,73.387-145.707C153.709,11.39,173.518,4.081,194.2,1.621
		c-34.97-5.243-70.657,2.333-100.48,21.333c-48.423,32.249-76.302,87.601-73.387,145.707c1.852,51.322,19.097,100.9,49.493,142.293
		c20.589,26.7,33.033,58.774,35.84,92.373c0,50.347,26.24,106.667,64,106.667c8.112,0.123,16.143-1.63,23.467-5.12
		C166.04,489.727,148.333,444.714,148.333,403.327z"/>
	
		<linearGradient id="SVGID_1_" gradientUnits="userSpaceOnUse" x1="-34.9103" y1="634.2711" x2="-28.4961" y2="640.6853" gradientTransform="matrix(21.3333 0 0 -21.3333 1016.668 13746.8633)">
		<stop  offset="0" style="stop-color:#34CDFA"/>
		<stop  offset="1" style="stop-color:#E8D9F1"/>
	</linearGradient>
	<path style="fill:url(#SVGID_1_);" d="M425.667,104.661H383V61.994c0-11.782-9.551-21.333-21.333-21.333H319
		c-11.782,0-21.333,9.551-21.333,21.333v42.667H255c-11.782,0-21.333,9.551-21.333,21.333v42.667
		c0,11.782,9.551,21.333,21.333,21.333h42.667v42.667c0,11.782,9.551,21.333,21.333,21.333h42.667
		c11.782,0,21.333-9.551,21.333-21.333v-42.667h42.667c11.782,0,21.333-9.551,21.333-21.333v-42.667
		C447,114.212,437.449,104.661,425.667,104.661z"/>
</g>
<g>
</g>
<g>
</g>
<g>
</g>
<g>
</g>
<g>
</g>
<g>
</g>
<g>
</g>
<g>
</g>
<g>
</g>
<g>
</g>
<g>
</g>
<g>
</g>
<g>
</g>
<g>
</g>
<g>
</g>
</svg>
