<?xml version="1.0" encoding="iso-8859-1"?>
<!-- Generator: Adobe Illustrator 19.0.0, SVG Export Plug-In . SVG Version: 6.00 Build 0)  -->
<svg version="1.1" id="Capa_1" xmlns="http://www.w3.org/2000/svg" xmlns:xlink="http://www.w3.org/1999/xlink" x="0px" y="0px"
	 viewBox="0 0 510.08 510.08" style="enable-background:new 0 0 510.08 510.08;" xml:space="preserve">
<g>
	<path style="fill:#E6F9FE;" d="M373.653,184.533L373.653,184.533c-40.96-27.52-95.573-7.68-118.613,2.987
		c-23.04-10.667-77.653-30.507-118.613-2.987c-32.052,19.104-51.792,53.567-52.053,90.88c1.007,33.756,14.279,65.989,37.333,90.667
		c15.675,15.698,25.146,36.534,26.667,58.667c0,21.333,0,85.333,42.667,85.333c39.04,0,51.2-44.587,59.947-77.227
		c1.067-4.267,2.56-9.6,4.053-14.507c1.493,4.907,2.773,10.027,4.053,14.507c8.747,32.64,21.333,77.227,59.947,77.227
		c42.667,0,42.667-64,42.667-85.333c1.52-22.132,10.991-42.968,26.667-58.667c23.054-24.678,36.326-56.911,37.333-90.667
		C425.445,238.101,405.706,203.637,373.653,184.533z"/>
	<path style="fill:#CCF2FE;" d="M191.04,424.747c-1.52-22.132-10.991-42.968-26.667-58.667
		c-23.054-24.678-36.326-56.911-37.333-90.667c0.261-37.313,20.001-71.776,52.053-90.88c8.866-5.814,18.802-9.803,29.227-11.733
		c-24.577-5.639-50.385-1.427-71.893,11.733c-32.052,19.104-51.792,53.567-52.053,90.88c1.007,33.756,14.279,65.989,37.333,90.667
		c15.675,15.698,25.146,36.534,26.667,58.667c0,21.333,0,85.333,42.667,85.333c7.916-0.014,15.672-2.23,22.4-6.4
		C191.04,486.827,191.04,441.813,191.04,424.747z"/>
	
		<linearGradient id="SVGID_1_" gradientUnits="userSpaceOnUse" x1="-38.6631" y1="633.4844" x2="-31.6631" y2="640.4844" gradientTransform="matrix(21.3333 0 0 -21.3333 1015.8534 13791.667)">
		<stop  offset="0" style="stop-color:#34CDFA"/>
		<stop  offset="1" style="stop-color:#E8D9F1"/>
	</linearGradient>
	<polygon style="fill:url(#SVGID_1_);" points="297.707,85.333 212.373,213.333 255.04,213.333 233.707,320 319.04,192 276.373,192 
			"/>
	<g>
		<polygon style="fill:#34CDFA;" points="404.373,0 319.04,85.333 361.707,85.333 340.373,149.333 425.707,64 383.04,64 		"/>
		<polygon style="fill:#34CDFA;" points="105.707,0 191.04,85.333 148.373,85.333 169.707,149.333 84.373,64 127.04,64 		"/>
	</g>
</g>
<g>
</g>
<g>
</g>
<g>
</g>
<g>
</g>
<g>
</g>
<g>
</g>
<g>
</g>
<g>
</g>
<g>
</g>
<g>
</g>
<g>
</g>
<g>
</g>
<g>
</g>
<g>
</g>
<g>
</g>
</svg>
